<svg width="20" height="20" viewBox="0 0 20 20" fill="none" xmlns="http://www.w3.org/2000/svg">
<rect width="20" height="20" rx="10" fill="#F0ECE1"/>
<path d="M14.4393 5.83191C14.6588 6.0516 14.6589 6.40782 14.4393 6.62741L10.9908 10.0759L14.4366 13.5217C14.6562 13.7413 14.6561 14.0975 14.4366 14.3172C14.2169 14.5369 13.8607 14.5369 13.6411 14.3172L10.1953 10.8714L6.74955 14.3172C6.52996 14.5368 6.17374 14.5366 5.95405 14.3172C5.73438 14.0975 5.73438 13.7414 5.95405 13.5217L9.39982 10.0759L5.95129 6.62741C5.73162 6.40774 5.73162 6.05158 5.95129 5.83191C6.17097 5.6124 6.52717 5.6123 6.74679 5.83191L10.1953 9.28044L13.6438 5.83191C13.8635 5.61224 14.2197 5.61224 14.4393 5.83191Z" fill="#000201"/>
</svg>
