<svg width="77" height="96" viewBox="0 0 77 96" fill="none" xmlns="http://www.w3.org/2000/svg">
<g clip-path="url(#clip0_248_423)">
<path opacity="0.06" d="M64.8827 80.187H11.6072C8.40675 80.187 5.8125 77.5926 5.8125 74.3923V5.79469C5.8125 2.59444 8.40675 0 11.6072 0H64.8827C68.0831 0 70.6774 2.59444 70.6774 5.79469V74.3921C70.6774 77.5926 68.0829 80.187 64.8827 80.187V80.187Z" fill="#000201"/>
<path d="M64.8826 0H59.0879C62.2883 0 64.8826 2.59444 64.8826 5.79469V74.3921C64.8826 77.5926 62.2881 80.1868 59.0879 80.1868H64.8826C68.083 80.1868 70.6773 77.5924 70.6773 74.3921V5.79469C70.6773 2.59444 68.0828 0 64.8826 0V0Z" fill="#BCC6C5"/>
<path d="M70.6961 95.9999H5.79469C2.59444 95.9999 0 93.4055 0 90.2052V43.4607C0 40.2603 2.59444 37.666 5.79469 37.666H34.062C36.3666 37.666 38.3752 39.2345 38.9342 41.47L39.9294 45.4514C40.4884 47.6871 42.4971 49.2554 44.8016 49.2554H70.6959C73.8964 49.2554 76.4906 51.8498 76.4906 55.0501V90.205C76.491 93.4055 73.8966 95.9999 70.6961 95.9999Z" fill="#0C756F"/>
<path d="M33.1403 41.47L34.1355 45.4514C34.6944 47.6871 36.7031 49.2554 39.0077 49.2554H44.8024C42.498 49.2554 40.4891 47.687 39.9302 45.4514L38.9349 41.47C38.376 39.2343 36.3673 37.666 34.0628 37.666H28.2681C30.5726 37.6658 32.5813 39.2343 33.1403 41.47V41.47Z" fill="#034844"/>
<path d="M70.6975 49.2559H64.9028C68.1033 49.2559 70.6975 51.8503 70.6975 55.0505V90.2055C70.6975 93.4059 68.1031 96.0002 64.9028 96.0002H70.6975C73.898 96.0002 76.4922 93.4057 76.4922 90.2055V55.0507C76.4924 51.8503 73.898 49.2559 70.6975 49.2559V49.2559Z" fill="#034844"/>
<path d="M59.8693 17.3845H16.6206C16.0872 17.3845 15.6548 16.9521 15.6548 16.4187V9.65819C15.6548 9.12476 16.0872 8.69238 16.6206 8.69238H59.8692C60.4026 8.69238 60.835 9.12476 60.835 9.65819V16.4187C60.835 16.9521 60.4026 17.3845 59.8693 17.3845Z" fill="#BCC6C5"/>
<path d="M60.8363 27.5252H15.6561C14.8561 27.5252 14.2075 26.8766 14.2075 26.0766C14.2075 25.2765 14.8561 24.6279 15.6561 24.6279H60.8363C61.6364 24.6279 62.285 25.2765 62.285 26.0766C62.285 26.8766 61.6364 27.5252 60.8363 27.5252Z" fill="#BCC6C5"/>
<path d="M60.8363 33.3201H15.6561C14.8561 33.3201 14.2075 32.6715 14.2075 31.8715C14.2075 31.0714 14.8561 30.4229 15.6561 30.4229H60.8363C61.6364 30.4229 62.285 31.0714 62.285 31.8715C62.2851 32.6715 61.6364 33.3201 60.8363 33.3201Z" fill="#BCC6C5"/>
<path d="M60.8361 39.115H44.6298C43.8297 39.115 43.1812 38.4665 43.1812 37.6664C43.1812 36.8663 43.8297 36.2178 44.6298 36.2178H60.8361C61.6362 36.2178 62.2848 36.8663 62.2848 37.6664C62.2848 38.4665 61.6362 39.115 60.8361 39.115Z" fill="#BCC6C5"/>
<path d="M60.8361 44.909H44.6298C43.8297 44.909 43.1812 44.2604 43.1812 43.4603C43.1812 42.6603 43.8297 42.0117 44.6298 42.0117H60.8361C61.6362 42.0117 62.2848 42.6603 62.2848 43.4603C62.2848 44.2604 61.6362 44.909 60.8361 44.909Z" fill="#BCC6C5"/>
</g>
<path d="M26.3335 74.667C26.3335 71.3672 26.3335 69.7173 27.3586 68.6921C28.3837 67.667 30.0337 67.667 33.3335 67.667H42.6668C45.9666 67.667 47.6165 67.667 48.6417 68.6921C49.6668 69.7173 49.6668 71.3672 49.6668 74.667C49.6668 77.9668 49.6668 79.6167 48.6417 80.6418C47.6165 81.667 45.9666 81.667 42.6668 81.667H33.3335C30.0337 81.667 28.3837 81.667 27.3586 80.6418C26.3335 79.6167 26.3335 77.9668 26.3335 74.667Z" stroke="white" stroke-width="2.25"/>
<path d="M31 67.6663V65.333C31 61.467 34.134 58.333 38 58.333C41.866 58.333 45 61.467 45 65.333V67.6663" stroke="white" stroke-width="2.25" stroke-linecap="round"/>
<path d="M33.3335 74.667H33.344M37.9897 74.667H38.0002M42.6563 74.667H42.6668" stroke="white" stroke-width="3" stroke-linecap="round" stroke-linejoin="round"/>
<defs>
<clipPath id="clip0_248_423">
<rect width="76.5" height="96" fill="white"/>
</clipPath>
</defs>
</svg>
