<svg width="77" height="96" viewBox="0 0 77 96" fill="none" xmlns="http://www.w3.org/2000/svg">
<path opacity="0.06" d="M64.8827 80.187H11.6072C8.40675 80.187 5.8125 77.5926 5.8125 74.3923V5.79469C5.8125 2.59444 8.40675 0 11.6072 0H64.8827C68.0831 0 70.6774 2.59444 70.6774 5.79469V74.3921C70.6774 77.5926 68.0829 80.187 64.8827 80.187V80.187Z" fill="#000201"/>
<path d="M64.8826 0H59.0879C62.2883 0 64.8826 2.59444 64.8826 5.79469V74.3921C64.8826 77.5926 62.2881 80.1868 59.0879 80.1868H64.8826C68.083 80.1868 70.6773 77.5924 70.6773 74.3921V5.79469C70.6773 2.59444 68.0828 0 64.8826 0V0Z" fill="#BCC6C5"/>
<path d="M59.8693 17.3845H16.6206C16.0872 17.3845 15.6548 16.9521 15.6548 16.4187V9.65819C15.6548 9.12476 16.0872 8.69238 16.6206 8.69238H59.8692C60.4026 8.69238 60.835 9.12476 60.835 9.65819V16.4187C60.835 16.9521 60.4026 17.3845 59.8693 17.3845Z" fill="#BCC6C5"/>
<path d="M60.8363 27.5252H15.6561C14.8561 27.5252 14.2075 26.8766 14.2075 26.0766C14.2075 25.2765 14.8561 24.6279 15.6561 24.6279H60.8363C61.6364 24.6279 62.285 25.2765 62.285 26.0766C62.285 26.8766 61.6364 27.5252 60.8363 27.5252Z" fill="#BCC6C5"/>
<path d="M60.8363 33.3201H15.6561C14.8561 33.3201 14.2075 32.6715 14.2075 31.8715C14.2075 31.0714 14.8561 30.4229 15.6561 30.4229H60.8363C61.6364 30.4229 62.285 31.0714 62.285 31.8715C62.2851 32.6715 61.6364 33.3201 60.8363 33.3201Z" fill="#BCC6C5"/>
<path d="M60.8388 39.1072H15.6586C14.8585 39.1072 14.21 38.4586 14.21 37.6586C14.21 36.8585 14.8585 36.21 15.6586 36.21H60.8388C61.6388 36.21 62.2874 36.8585 62.2874 37.6586C62.2876 38.4586 61.6388 39.1072 60.8388 39.1072Z" fill="#BCC6C5"/>
<path d="M60.8388 44.8972H15.6586C14.8585 44.8972 14.21 44.2487 14.21 43.4486C14.21 42.6486 14.8585 42 15.6586 42H60.8388C61.6388 42 62.2874 42.6486 62.2874 43.4486C62.2874 44.2487 61.6388 44.8972 60.8388 44.8972Z" fill="#BCC6C5"/>
<path d="M60.8388 50.6873H15.6586C14.8585 50.6873 14.21 50.0387 14.21 49.2387C14.21 48.4386 14.8585 47.79 15.6586 47.79H60.8388C61.6388 47.79 62.2874 48.4386 62.2874 49.2387C62.2876 50.0387 61.6388 50.6873 60.8388 50.6873Z" fill="#BCC6C5"/>
<path d="M60.8388 56.4773H15.6586C14.8585 56.4773 14.21 55.8288 14.21 55.0287C14.21 54.2286 14.8585 53.5801 15.6586 53.5801H60.8388C61.6388 53.5801 62.2874 54.2286 62.2874 55.0287C62.2876 55.8288 61.6388 56.4773 60.8388 56.4773Z" fill="#BCC6C5"/>
<path d="M60.8388 39.1072H15.6586C14.8585 39.1072 14.21 38.4586 14.21 37.6586C14.21 36.8585 14.8585 36.21 15.6586 36.21H60.8388C61.6388 36.21 62.2874 36.8585 62.2874 37.6586C62.2876 38.4586 61.6388 39.1072 60.8388 39.1072Z" fill="#BCC6C5"/>
<path d="M60.8388 44.8972H15.6586C14.8585 44.8972 14.21 44.2487 14.21 43.4486C14.21 42.6486 14.8585 42 15.6586 42H60.8388C61.6388 42 62.2874 42.6486 62.2874 43.4486C62.2874 44.2487 61.6388 44.8972 60.8388 44.8972Z" fill="#BCC6C5"/>
<path d="M60.8388 50.6873H15.6586C14.8585 50.6873 14.21 50.0387 14.21 49.2387C14.21 48.4386 14.8585 47.79 15.6586 47.79H60.8388C61.6388 47.79 62.2874 48.4386 62.2874 49.2387C62.2876 50.0387 61.6388 50.6873 60.8388 50.6873Z" fill="#BCC6C5"/>
<path d="M60.8388 56.4773H15.6586C14.8585 56.4773 14.21 55.8288 14.21 55.0287C14.21 54.2286 14.8585 53.5801 15.6586 53.5801H60.8388C61.6388 53.5801 62.2874 54.2286 62.2874 55.0287C62.2876 55.8288 61.6388 56.4773 60.8388 56.4773Z" fill="#BCC6C5"/>
<path d="M60.8388 62.2674H15.6586C14.8585 62.2674 14.21 61.6188 14.21 60.8187C14.21 60.0187 14.8585 59.3701 15.6586 59.3701H60.8388C61.6388 59.3701 62.2874 60.0187 62.2874 60.8187C62.2874 61.6188 61.6388 62.2674 60.8388 62.2674Z" fill="#BCC6C5"/>
<path d="M60.8388 68.0574H15.6586C14.8585 68.0574 14.21 67.4088 14.21 66.6088C14.21 65.8087 14.8585 65.1602 15.6586 65.1602H60.8388C61.6388 65.1602 62.2874 65.8087 62.2874 66.6088C62.2876 67.4088 61.6388 68.0574 60.8388 68.0574Z" fill="#BCC6C5"/>
<path d="M60.8388 73.8474H15.6586C14.8585 73.8474 14.21 73.1989 14.21 72.3988C14.21 71.5988 14.8585 70.9502 15.6586 70.9502H60.8388C61.6388 70.9502 62.2874 71.5988 62.2874 72.3988C62.2876 73.1989 61.6388 73.8474 60.8388 73.8474Z" fill="#BCC6C5"/>
</svg>
