<svg width="77" height="96" viewBox="0 0 77 96" fill="none" xmlns="http://www.w3.org/2000/svg">
<g clip-path="url(#clip0_234_26)">
<path opacity="0.06" d="M64.8827 80.187H11.6072C8.40675 80.187 5.8125 77.5926 5.8125 74.3923V5.79469C5.8125 2.59444 8.40675 0 11.6072 0H64.8827C68.0831 0 70.6774 2.59444 70.6774 5.79469V74.3921C70.6774 77.5926 68.0829 80.187 64.8827 80.187V80.187Z" fill="#000201"/>
<path d="M64.8826 0H59.0879C62.2883 0 64.8826 2.59444 64.8826 5.79469V74.3921C64.8826 77.5926 62.2881 80.1868 59.0879 80.1868H64.8826C68.083 80.1868 70.6773 77.5924 70.6773 74.3921V5.79469C70.6773 2.59444 68.0828 0 64.8826 0V0Z" fill="#BCC6C5"/>
<path d="M70.6961 95.9999H5.79469C2.59444 95.9999 0 93.4055 0 90.2052V43.4607C0 40.2603 2.59444 37.666 5.79469 37.666H34.062C36.3666 37.666 38.3752 39.2345 38.9342 41.47L39.9294 45.4514C40.4884 47.6871 42.4971 49.2554 44.8016 49.2554H70.6959C73.8964 49.2554 76.4906 51.8498 76.4906 55.0501V90.205C76.491 93.4055 73.8966 95.9999 70.6961 95.9999V95.9999Z" fill="#0C756F"/>
<path d="M27.75 69.2168C27.75 68.2779 27.7502 67.5024 27.8018 66.8711C27.8553 66.2153 27.9703 65.6121 28.2588 65.0459C28.7062 64.168 29.4199 63.4542 30.2979 63.0068C30.8641 62.7183 31.4673 62.6034 32.123 62.5498C32.7544 62.4981 33.5297 62.4979 34.4688 62.498H42.0313C42.9704 62.4979 43.7456 62.4981 44.377 62.5498C45.0327 62.6034 45.6358 62.7183 46.2021 63.0068C47.08 63.4542 47.7938 64.168 48.2412 65.0459C48.5297 65.6121 48.6447 66.2153 48.6982 66.8711C48.7498 67.5024 48.75 68.2778 48.75 69.2168V72.998C48.75 73.6423 48.2273 74.165 47.583 74.165C46.9388 74.1649 46.417 73.6422 46.417 72.998V69.2646C46.417 68.2653 46.416 67.5857 46.373 67.0605C46.3313 66.5493 46.2551 66.2879 46.1621 66.1055C45.9385 65.6665 45.5816 65.3097 45.1426 65.0859C44.9602 64.9931 44.6988 64.9168 44.1875 64.875C43.6624 64.8321 42.9827 64.8311 41.9834 64.8311H34.5166C33.5173 64.8311 32.8376 64.8321 32.3125 64.875C31.8013 64.9168 31.5398 64.9931 31.3574 65.0859C30.9184 65.3097 30.5616 65.6665 30.3379 66.1055C30.2449 66.2879 30.1687 66.5493 30.127 67.0605C30.0841 67.5857 30.083 68.2653 30.083 69.2646V72.998C30.083 73.6422 29.5612 74.1649 28.917 74.165C28.2727 74.165 27.75 73.6423 27.75 72.998V69.2168ZM33.9209 73.8252C33.4653 73.3696 33.4653 72.6304 33.9209 72.1748L37.4209 68.6748C37.8765 68.2193 38.6157 68.2192 39.0713 68.6748L42.5713 72.1748C43.0268 72.6304 43.0268 73.3696 42.5713 73.8252C42.1157 74.2808 41.3765 74.2807 40.9209 73.8252L39.4131 72.3164V82.333C39.4131 82.9773 38.8904 83.5 38.2461 83.5C37.6017 83.5 37.0791 82.9773 37.0791 82.333V72.3164L35.5713 73.8252C35.1157 74.2808 34.3765 74.2807 33.9209 73.8252Z" fill="white"/>
<path d="M33.1403 41.47L34.1355 45.4514C34.6944 47.6871 36.7031 49.2554 39.0077 49.2554H44.8024C42.498 49.2554 40.4891 47.687 39.9302 45.4514L38.9349 41.47C38.376 39.2343 36.3673 37.666 34.0628 37.666H28.2681C30.5726 37.6658 32.5813 39.2343 33.1403 41.47V41.47Z" fill="#034844"/>
<path d="M70.6975 49.2559H64.9028C68.1033 49.2559 70.6975 51.8503 70.6975 55.0505V90.2055C70.6975 93.4059 68.1031 96.0002 64.9028 96.0002H70.6975C73.898 96.0002 76.4922 93.4057 76.4922 90.2055V55.0507C76.4924 51.8503 73.898 49.2559 70.6975 49.2559V49.2559Z" fill="#034844"/>
<path d="M59.8693 17.3845H16.6206C16.0872 17.3845 15.6548 16.9521 15.6548 16.4187V9.65819C15.6548 9.12476 16.0872 8.69238 16.6206 8.69238H59.8692C60.4026 8.69238 60.835 9.12476 60.835 9.65819V16.4187C60.835 16.9521 60.4026 17.3845 59.8693 17.3845Z" fill="#BCC6C5"/>
<path d="M60.8363 27.5252H15.6561C14.8561 27.5252 14.2075 26.8766 14.2075 26.0766C14.2075 25.2765 14.8561 24.6279 15.6561 24.6279H60.8363C61.6364 24.6279 62.285 25.2765 62.285 26.0766C62.285 26.8766 61.6364 27.5252 60.8363 27.5252Z" fill="#BCC6C5"/>
<path d="M60.8363 33.3201H15.6561C14.8561 33.3201 14.2075 32.6715 14.2075 31.8715C14.2075 31.0714 14.8561 30.4229 15.6561 30.4229H60.8363C61.6364 30.4229 62.285 31.0714 62.285 31.8715C62.2851 32.6715 61.6364 33.3201 60.8363 33.3201Z" fill="#BCC6C5"/>
<path d="M60.8361 39.115H44.6298C43.8297 39.115 43.1812 38.4665 43.1812 37.6664C43.1812 36.8663 43.8297 36.2178 44.6298 36.2178H60.8361C61.6362 36.2178 62.2848 36.8663 62.2848 37.6664C62.2848 38.4665 61.6362 39.115 60.8361 39.115Z" fill="#BCC6C5"/>
<path d="M60.8361 44.909H44.6298C43.8297 44.909 43.1812 44.2604 43.1812 43.4603C43.1812 42.6603 43.8297 42.0117 44.6298 42.0117H60.8361C61.6362 42.0117 62.2848 42.6603 62.2848 43.4603C62.2848 44.2604 61.6362 44.909 60.8361 44.909Z" fill="#BCC6C5"/>
</g>
<defs>
<clipPath id="clip0_234_26">
<rect width="76.5" height="96" fill="white"/>
</clipPath>
</defs>
</svg>
