<svg width="40" height="40" viewBox="0 0 40 40" fill="none" xmlns="http://www.w3.org/2000/svg">
<circle opacity="0.2" cx="20" cy="20" r="20" fill="#0C756F"/>
<g clip-path="url(#clip0_238_51)">
<path d="M36.7813 34.9998H3.21161C1.55631 34.9998 0.214355 33.6579 0.214355 32.0026V7.8244C0.214355 6.169 1.55631 4.82715 3.21161 4.82715H17.8326C19.0246 4.82715 20.0636 5.63841 20.3527 6.79473L20.8675 8.85407C21.1566 10.0105 22.1956 10.8217 23.3876 10.8217H36.7812C38.4366 10.8217 39.7785 12.1636 39.7785 13.8189V32.0025C39.7787 33.6579 38.4367 34.9998 36.7813 34.9998V34.9998Z" fill="#0C756F"/>
<path d="M17.357 6.79571L17.8718 8.85504C18.1609 10.0115 19.1999 10.8226 20.3919 10.8226H23.3891C22.1972 10.8226 21.1582 10.0114 20.869 8.85504L20.3543 6.79571C20.0652 5.63929 19.0262 4.82813 17.8342 4.82813H14.8369C16.0289 4.82803 17.0679 5.63929 17.357 6.79571V6.79571Z" fill="#034844"/>
<path d="M36.7819 10.8223H33.7847C35.4401 10.8223 36.7819 12.1642 36.7819 13.8195V32.0031C36.7819 33.6585 35.44 35.0004 33.7847 35.0004H36.7819C38.4373 35.0004 39.7792 33.6584 39.7792 32.0031V13.8196C39.7793 12.1642 38.4373 10.8223 36.7819 10.8223V10.8223Z" fill="#034844"/>
<path d="M15.1196 18.876C15.2076 18.98 15.2516 19.088 15.2516 19.2C15.2516 19.248 15.2476 19.3 15.2396 19.356C15.2396 19.404 15.2356 19.448 15.2276 19.488C15.2036 19.576 15.1516 19.66 15.0716 19.74C15.0076 19.788 14.9196 19.824 14.8076 19.848C14.7516 19.864 14.6956 19.876 14.6396 19.884C14.5836 19.892 14.5236 19.904 14.4596 19.92C14.4036 19.928 14.3476 19.932 14.2916 19.932C14.2356 19.932 14.1756 19.932 14.1116 19.932H13.4996C13.3556 19.94 13.2116 19.944 13.0676 19.944C12.9316 19.944 12.7956 19.944 12.6596 19.944C12.6676 20.192 12.6716 20.46 12.6716 20.748C12.6716 21.028 12.6676 21.356 12.6596 21.732C12.6596 22.108 12.6556 22.544 12.6476 23.04C12.6476 23.536 12.6476 24.112 12.6476 24.768V25.68C12.6476 25.76 12.6516 25.82 12.6596 25.86C12.6596 25.892 12.6596 25.924 12.6596 25.956C12.6596 25.98 12.6556 26.012 12.6476 26.052C12.6316 26.124 12.6196 26.208 12.6116 26.304C12.6116 26.344 12.6076 26.384 12.5996 26.424C12.5916 26.456 12.5796 26.492 12.5636 26.532C12.5316 26.564 12.5156 26.588 12.5156 26.604L12.4796 26.676C12.4396 26.756 12.3636 26.832 12.2516 26.904C12.0756 26.992 11.8796 27.012 11.6636 26.964C11.5276 26.948 11.4236 26.912 11.3516 26.856C11.2796 26.784 11.2276 26.712 11.1956 26.64C11.1476 26.552 11.1196 26.468 11.1116 26.388C11.0876 26.316 11.0756 26.24 11.0756 26.16V19.992C11.0276 19.992 10.9276 19.992 10.7756 19.992C10.6236 19.992 10.4596 19.992 10.2836 19.992C10.1156 19.984 9.95563 19.976 9.80363 19.968C9.65163 19.96 9.54763 19.952 9.49163 19.944C9.44363 19.936 9.36763 19.924 9.26363 19.908C9.16763 19.892 9.08763 19.876 9.02363 19.86C8.85563 19.812 8.72363 19.736 8.62763 19.632C8.53963 19.528 8.49563 19.412 8.49563 19.284C8.49563 19.236 8.49563 19.188 8.49563 19.14C8.49563 19.092 8.50363 19.048 8.51963 19.008C8.54363 18.912 8.60763 18.832 8.71163 18.768C8.74363 18.744 8.79163 18.716 8.85563 18.684C8.92763 18.644 8.99563 18.616 9.05963 18.6C9.15563 18.568 9.27563 18.544 9.41963 18.528C9.48363 18.52 9.54763 18.516 9.61163 18.516C9.67563 18.516 9.74363 18.516 9.81563 18.516C10.0956 18.516 10.3596 18.516 10.6076 18.516C10.8636 18.516 11.1316 18.512 11.4116 18.504C11.8756 18.496 12.3356 18.496 12.7916 18.504C13.2556 18.504 13.7156 18.512 14.1716 18.528C14.2756 18.536 14.3756 18.548 14.4716 18.564C14.5676 18.58 14.6636 18.608 14.7596 18.648C14.8316 18.672 14.8996 18.704 14.9636 18.744C15.0276 18.776 15.0796 18.82 15.1196 18.876ZM22.6746 25.896C22.7626 26.056 22.7986 26.196 22.7826 26.316C22.7746 26.436 22.7626 26.536 22.7466 26.616C22.7226 26.704 22.6626 26.78 22.5666 26.844C22.4786 26.9 22.3786 26.944 22.2666 26.976C22.1226 27.016 22.0026 27.024 21.9066 27C21.7866 26.976 21.6866 26.936 21.6066 26.88C21.5586 26.84 21.5146 26.804 21.4746 26.772C21.4346 26.732 21.3946 26.696 21.3546 26.664C21.3146 26.624 21.2786 26.588 21.2466 26.556C21.2146 26.524 21.1906 26.492 21.1746 26.46C21.1586 26.428 21.1426 26.408 21.1266 26.4C21.1186 26.384 21.1106 26.372 21.1026 26.364L19.5066 24.06L17.9226 26.364C17.9146 26.372 17.9026 26.384 17.8866 26.4C17.8786 26.408 17.8626 26.428 17.8386 26.46C17.8226 26.492 17.7986 26.524 17.7666 26.556C17.7426 26.588 17.7146 26.624 17.6826 26.664C17.6426 26.696 17.5986 26.732 17.5506 26.772C17.5026 26.804 17.4586 26.84 17.4186 26.88C17.3706 26.912 17.3186 26.936 17.2626 26.952C17.2146 26.968 17.1666 26.984 17.1186 27C17.0146 27.024 16.9026 27.016 16.7826 26.976C16.5346 26.92 16.3626 26.8 16.2666 26.616C16.2186 26.52 16.1986 26.42 16.2066 26.316C16.2146 26.204 16.2386 26.092 16.2786 25.98C16.3266 25.868 16.3786 25.76 16.4346 25.656C16.4986 25.552 16.5626 25.452 16.6266 25.356C16.6586 25.316 16.6866 25.28 16.7106 25.248C16.7426 25.216 16.7746 25.18 16.8066 25.14C16.9106 25.004 17.0106 24.868 17.1066 24.732C17.2026 24.588 17.3066 24.436 17.4186 24.276L18.5346 22.656L16.8906 20.28L16.7466 20.076C16.7146 20.028 16.6826 19.984 16.6506 19.944C16.6186 19.904 16.5866 19.856 16.5546 19.8C16.5226 19.76 16.4906 19.716 16.4586 19.668C16.4266 19.62 16.3986 19.564 16.3746 19.5C16.3506 19.452 16.3266 19.408 16.3026 19.368C16.2866 19.32 16.2706 19.264 16.2546 19.2C16.2306 19.104 16.2226 19.016 16.2306 18.936C16.2546 18.832 16.3066 18.744 16.3866 18.672C16.4186 18.632 16.4546 18.6 16.4946 18.576C16.5426 18.552 16.5866 18.528 16.6266 18.504C16.7066 18.472 16.7786 18.448 16.8426 18.432C16.9066 18.416 16.9746 18.408 17.0466 18.408C17.1906 18.416 17.3266 18.468 17.4546 18.564C17.6146 18.668 17.7586 18.796 17.8866 18.948C17.9426 19.036 17.9986 19.12 18.0546 19.2C18.1106 19.272 18.1706 19.348 18.2346 19.428L18.2466 19.476C18.4466 19.74 18.6266 19.996 18.7866 20.244C18.9546 20.484 19.1386 20.74 19.3386 21.012C19.3706 21.052 19.3986 21.092 19.4226 21.132C19.4466 21.172 19.4746 21.212 19.5066 21.252C19.5386 21.212 19.5666 21.172 19.5906 21.132C19.6146 21.092 19.6426 21.052 19.6746 21.012C19.8586 20.74 20.0346 20.484 20.2026 20.244C20.3786 19.996 20.5626 19.74 20.7546 19.476L20.7786 19.428C20.8426 19.348 20.9026 19.272 20.9586 19.2C21.0226 19.12 21.0826 19.036 21.1386 18.948C21.2666 18.796 21.4106 18.668 21.5706 18.564C21.6906 18.468 21.8266 18.416 21.9786 18.408C22.1066 18.408 22.2426 18.44 22.3866 18.504C22.4826 18.56 22.5546 18.616 22.6026 18.672C22.6986 18.744 22.7586 18.832 22.7826 18.936C22.7906 19.016 22.7826 19.104 22.7586 19.2C22.7426 19.264 22.7226 19.32 22.6986 19.368C22.6826 19.408 22.6546 19.452 22.6146 19.5C22.5666 19.62 22.5146 19.72 22.4586 19.8C22.4266 19.856 22.3946 19.904 22.3626 19.944C22.3306 19.984 22.3026 20.028 22.2786 20.076L22.1346 20.28L20.4786 22.656L21.5946 24.276L22.2426 25.188C22.3146 25.308 22.3866 25.424 22.4586 25.536C22.5306 25.648 22.6026 25.768 22.6746 25.896ZM30.3774 18.876C30.4654 18.98 30.5094 19.088 30.5094 19.2C30.5094 19.248 30.5054 19.3 30.4974 19.356C30.4974 19.404 30.4934 19.448 30.4854 19.488C30.4614 19.576 30.4094 19.66 30.3294 19.74C30.2654 19.788 30.1774 19.824 30.0654 19.848C30.0094 19.864 29.9534 19.876 29.8974 19.884C29.8414 19.892 29.7814 19.904 29.7174 19.92C29.6614 19.928 29.6054 19.932 29.5494 19.932C29.4934 19.932 29.4334 19.932 29.3694 19.932H28.7574C28.6134 19.94 28.4694 19.944 28.3254 19.944C28.1894 19.944 28.0534 19.944 27.9174 19.944C27.9254 20.192 27.9294 20.46 27.9294 20.748C27.9294 21.028 27.9254 21.356 27.9174 21.732C27.9174 22.108 27.9134 22.544 27.9054 23.04C27.9054 23.536 27.9054 24.112 27.9054 24.768V25.68C27.9054 25.76 27.9094 25.82 27.9174 25.86C27.9174 25.892 27.9174 25.924 27.9174 25.956C27.9174 25.98 27.9134 26.012 27.9054 26.052C27.8894 26.124 27.8774 26.208 27.8694 26.304C27.8694 26.344 27.8654 26.384 27.8574 26.424C27.8494 26.456 27.8374 26.492 27.8214 26.532C27.7894 26.564 27.7734 26.588 27.7734 26.604L27.7374 26.676C27.6974 26.756 27.6214 26.832 27.5094 26.904C27.3334 26.992 27.1374 27.012 26.9214 26.964C26.7854 26.948 26.6814 26.912 26.6094 26.856C26.5374 26.784 26.4854 26.712 26.4534 26.64C26.4054 26.552 26.3774 26.468 26.3694 26.388C26.3454 26.316 26.3334 26.24 26.3334 26.16V19.992C26.2854 19.992 26.1854 19.992 26.0334 19.992C25.8814 19.992 25.7174 19.992 25.5414 19.992C25.3734 19.984 25.2134 19.976 25.0614 19.968C24.9094 19.96 24.8054 19.952 24.7494 19.944C24.7014 19.936 24.6254 19.924 24.5214 19.908C24.4254 19.892 24.3454 19.876 24.2814 19.86C24.1134 19.812 23.9814 19.736 23.8854 19.632C23.7974 19.528 23.7534 19.412 23.7534 19.284C23.7534 19.236 23.7534 19.188 23.7534 19.14C23.7534 19.092 23.7614 19.048 23.7774 19.008C23.8014 18.912 23.8654 18.832 23.9694 18.768C24.0014 18.744 24.0494 18.716 24.1134 18.684C24.1854 18.644 24.2534 18.616 24.3174 18.6C24.4134 18.568 24.5334 18.544 24.6774 18.528C24.7414 18.52 24.8054 18.516 24.8694 18.516C24.9334 18.516 25.0014 18.516 25.0734 18.516C25.3534 18.516 25.6174 18.516 25.8654 18.516C26.1214 18.516 26.3894 18.512 26.6694 18.504C27.1334 18.496 27.5934 18.496 28.0494 18.504C28.5134 18.504 28.9734 18.512 29.4294 18.528C29.5334 18.536 29.6334 18.548 29.7294 18.564C29.8254 18.58 29.9214 18.608 30.0174 18.648C30.0894 18.672 30.1574 18.704 30.2214 18.744C30.2854 18.776 30.3374 18.82 30.3774 18.876Z" fill="white"/>
</g>
<defs>
<clipPath id="clip0_238_51">
<rect width="39.3103" height="30" fill="white" transform="translate(0.345215 5)"/>
</clipPath>
</defs>
</svg>
