<svg width="28" height="28" viewBox="0 0 28 28" fill="none" xmlns="http://www.w3.org/2000/svg">
<g clip-path="url(#clip0_256_3)">
<rect width="28" height="28" fill="#034844"/>
<path d="M7 17C7 15.1144 7 14.1716 7.61508 13.5858C8.23015 13 9.2201 13 11.2 13H16.8C18.7799 13 19.7698 13 20.3849 13.5858C21 14.1716 21 15.1144 21 17C21 18.8856 21 19.8284 20.3849 20.4142C19.7698 21 18.7799 21 16.8 21H11.2C9.2201 21 8.23015 21 7.61508 20.4142C7 19.8284 7 18.8856 7 17Z" stroke="#FFB74D" stroke-width="2.25"/>
<path d="M10 13V11.5C10 9.01472 11.7909 7 14 7C16.2091 7 18 9.01472 18 11.5V13" stroke="#FFB74D" stroke-width="2.25" stroke-linecap="round"/>
<path d="M11.6231 18.736C11.6271 18.776 11.6231 18.814 11.6111 18.85C11.6031 18.874 11.5911 18.894 11.5751 18.91C11.5631 18.926 11.5471 18.942 11.5271 18.958C11.4911 18.982 11.4471 19.004 11.3951 19.024C11.3631 19.032 11.3311 19.038 11.2991 19.042C11.2711 19.05 11.2411 19.05 11.2091 19.042C11.1451 19.038 11.0891 19.014 11.0411 18.97C10.9731 18.914 10.9171 18.852 10.8731 18.784C10.8531 18.752 10.8311 18.716 10.8071 18.676C10.7831 18.636 10.7611 18.594 10.7411 18.55L10.0751 17.284C10.0431 17.284 10.0111 17.286 9.97911 17.29C9.94711 17.29 9.91511 17.292 9.88311 17.296C9.79911 17.304 9.71911 17.306 9.64311 17.302C9.57111 17.298 9.49511 17.298 9.41511 17.302H9.30111V18.388C9.30111 18.42 9.29911 18.45 9.29511 18.478C9.29511 18.506 9.29511 18.536 9.29511 18.568C9.29511 18.588 9.29311 18.614 9.28911 18.646C9.28911 18.678 9.28711 18.708 9.28311 18.736C9.27511 18.78 9.25711 18.826 9.22911 18.874C9.20111 18.918 9.16311 18.956 9.11511 18.988C9.03111 19.04 8.92911 19.054 8.80911 19.03C8.75711 19.018 8.70711 18.998 8.65911 18.97C8.64311 18.958 8.62911 18.944 8.61711 18.928C8.60511 18.908 8.59511 18.888 8.58711 18.868C8.57911 18.848 8.57111 18.828 8.56311 18.808C8.55911 18.784 8.55311 18.762 8.54511 18.742C8.53311 18.702 8.52711 18.664 8.52711 18.628V15.22C8.52711 15.196 8.52711 15.172 8.52711 15.148C8.53111 15.12 8.53511 15.096 8.53911 15.076C8.54311 15.032 8.55711 14.988 8.58111 14.944C8.59311 14.896 8.61311 14.862 8.64111 14.842C8.66511 14.818 8.70111 14.798 8.74911 14.782C8.80111 14.762 8.87511 14.754 8.97111 14.758C9.15111 14.762 9.32911 14.764 9.50511 14.764C9.68111 14.764 9.85711 14.768 10.0331 14.776C10.1491 14.784 10.2711 14.798 10.3991 14.818C10.5311 14.834 10.6531 14.864 10.7651 14.908C10.8371 14.936 10.9031 14.964 10.9631 14.992C11.0391 15.036 11.0991 15.078 11.1431 15.118C11.2831 15.246 11.3891 15.4 11.4611 15.58C11.5331 15.76 11.5691 15.942 11.5691 16.126C11.5691 16.342 11.5171 16.54 11.4131 16.72C11.3131 16.9 11.1511 17.034 10.9271 17.122C10.9191 17.13 10.9071 17.136 10.8911 17.14C10.8791 17.14 10.8691 17.142 10.8611 17.146L11.4131 18.256L11.4671 18.352C11.4751 18.368 11.4851 18.386 11.4971 18.406C11.5091 18.426 11.5191 18.446 11.5271 18.466C11.5391 18.486 11.5491 18.508 11.5571 18.532C11.5691 18.556 11.5811 18.578 11.5931 18.598C11.6051 18.654 11.6151 18.7 11.6231 18.736ZM10.1231 16.6C10.1951 16.6 10.2631 16.588 10.3271 16.564C10.3951 16.536 10.4551 16.5 10.5071 16.456C10.5631 16.412 10.6091 16.362 10.6451 16.306C10.6811 16.246 10.7011 16.182 10.7051 16.114C10.7211 15.914 10.6691 15.766 10.5491 15.67C10.4291 15.57 10.2711 15.516 10.0751 15.508C9.95911 15.5 9.83111 15.496 9.69111 15.496C9.55511 15.496 9.42511 15.496 9.30111 15.496C9.30511 15.66 9.30511 15.828 9.30111 16C9.30111 16.168 9.30111 16.368 9.30111 16.6H10.1231ZM15.2152 17.254C15.2352 17.31 15.2492 17.374 15.2572 17.446C15.2692 17.514 15.2752 17.584 15.2752 17.656C15.2752 17.728 15.2692 17.8 15.2572 17.872C15.2492 17.94 15.2372 18 15.2212 18.052C15.1572 18.276 15.0292 18.464 14.8372 18.616C14.6452 18.764 14.4252 18.872 14.1772 18.94C13.9332 19.008 13.6792 19.032 13.4152 19.012C13.1552 18.992 12.9232 18.926 12.7192 18.814C12.5912 18.742 12.4812 18.654 12.3892 18.55C12.2972 18.446 12.2192 18.33 12.1552 18.202C12.1312 18.158 12.1152 18.108 12.1072 18.052C12.1032 17.992 12.1092 17.936 12.1252 17.884C12.1412 17.828 12.1672 17.78 12.2032 17.74C12.2392 17.696 12.2892 17.666 12.3532 17.65C12.3932 17.642 12.4372 17.638 12.4852 17.638C12.5372 17.638 12.5872 17.646 12.6352 17.662C12.6832 17.674 12.7272 17.696 12.7672 17.728C12.8072 17.756 12.8392 17.796 12.8632 17.848C12.9072 17.932 12.9692 18.01 13.0492 18.082C13.1332 18.15 13.2212 18.206 13.3132 18.25C13.4452 18.294 13.5772 18.312 13.7092 18.304C13.8452 18.296 13.9672 18.266 14.0752 18.214C14.1872 18.162 14.2772 18.092 14.3452 18.004C14.4132 17.912 14.4472 17.808 14.4472 17.692C14.4472 17.596 14.4332 17.518 14.4052 17.458C14.3772 17.394 14.3372 17.342 14.2852 17.302C14.2372 17.258 14.1772 17.222 14.1052 17.194C14.0372 17.166 13.9612 17.142 13.8772 17.122C13.7812 17.102 13.6832 17.088 13.5832 17.08C13.4872 17.072 13.3892 17.062 13.2892 17.05C13.1892 17.038 13.0912 17.022 12.9952 17.002C12.8992 16.982 12.8052 16.952 12.7132 16.912C12.5292 16.836 12.3892 16.72 12.2932 16.564C12.1972 16.408 12.1392 16.24 12.1192 16.06C12.1032 15.88 12.1252 15.702 12.1852 15.526C12.2452 15.346 12.3412 15.192 12.4732 15.064C12.6012 14.948 12.7532 14.866 12.9292 14.818C13.1092 14.766 13.3072 14.736 13.5232 14.728C13.6432 14.724 13.7632 14.728 13.8832 14.74C14.0072 14.752 14.1252 14.772 14.2372 14.8C14.3532 14.828 14.4592 14.864 14.5552 14.908C14.6552 14.952 14.7412 15.004 14.8132 15.064C14.8652 15.104 14.9172 15.158 14.9692 15.226C15.0212 15.29 15.0612 15.36 15.0892 15.436C15.1172 15.508 15.1252 15.578 15.1132 15.646C15.1052 15.714 15.0632 15.772 14.9872 15.82C14.9232 15.86 14.8612 15.878 14.8012 15.874C14.7452 15.866 14.6912 15.848 14.6392 15.82C14.5872 15.788 14.5372 15.752 14.4892 15.712C14.4412 15.672 14.3972 15.636 14.3572 15.604C14.2492 15.524 14.1152 15.47 13.9552 15.442C13.7952 15.414 13.6452 15.408 13.5052 15.424C13.4172 15.436 13.3352 15.456 13.2592 15.484C13.1832 15.512 13.1172 15.55 13.0612 15.598C13.0092 15.646 12.9672 15.706 12.9352 15.778C12.9072 15.846 12.8972 15.924 12.9052 16.012C12.9092 16.076 12.9272 16.13 12.9592 16.174C12.9952 16.218 13.0372 16.254 13.0852 16.282C13.1372 16.31 13.1932 16.332 13.2532 16.348C13.3132 16.364 13.3732 16.376 13.4332 16.384C13.6132 16.408 13.7932 16.426 13.9732 16.438C14.1532 16.45 14.3292 16.49 14.5012 16.558C14.6772 16.626 14.8272 16.718 14.9512 16.834C15.0752 16.95 15.1632 17.09 15.2152 17.254ZM19.4596 18.592C19.4636 18.616 19.4656 18.64 19.4656 18.664C19.4696 18.684 19.4716 18.708 19.4716 18.736C19.4716 18.784 19.4576 18.828 19.4296 18.868C19.4176 18.888 19.4016 18.908 19.3816 18.928C19.3616 18.944 19.3376 18.958 19.3096 18.97C19.2096 19.026 19.1036 19.046 18.9916 19.03C18.9356 19.014 18.8856 18.988 18.8416 18.952C18.8336 18.944 18.8276 18.94 18.8236 18.94C18.8196 18.936 18.8156 18.93 18.8116 18.922C18.8076 18.918 18.8036 18.914 18.7996 18.91C18.7956 18.902 18.7896 18.896 18.7816 18.892C18.7616 18.872 18.7456 18.854 18.7336 18.838C18.7216 18.818 18.7096 18.798 18.6976 18.778C18.6896 18.758 18.6796 18.74 18.6676 18.724C18.6596 18.704 18.6496 18.684 18.6376 18.664C18.6296 18.648 18.6216 18.634 18.6136 18.622C18.6056 18.606 18.5996 18.59 18.5956 18.574C18.5796 18.538 18.5696 18.506 18.5656 18.478L18.4396 18.184C18.1636 18.184 17.8876 18.186 17.6116 18.19C17.3396 18.19 17.0656 18.188 16.7896 18.184L16.6636 18.478C16.6556 18.494 16.6496 18.51 16.6456 18.526C16.6456 18.542 16.6416 18.558 16.6336 18.574C16.6256 18.59 16.6176 18.606 16.6096 18.622C16.6056 18.634 16.5996 18.648 16.5916 18.664C16.5796 18.684 16.5676 18.704 16.5556 18.724C16.5476 18.74 16.5376 18.758 16.5256 18.778C16.5176 18.798 16.5076 18.818 16.4956 18.838C16.4836 18.854 16.4676 18.872 16.4476 18.892C16.4396 18.896 16.4336 18.902 16.4296 18.91C16.4256 18.914 16.4216 18.918 16.4176 18.922C16.4136 18.93 16.4096 18.936 16.4056 18.94C16.4016 18.94 16.3956 18.944 16.3876 18.952C16.3436 18.988 16.2936 19.014 16.2376 19.03C16.1256 19.046 16.0196 19.026 15.9196 18.97C15.8916 18.958 15.8676 18.944 15.8476 18.928C15.8276 18.908 15.8116 18.888 15.7996 18.868C15.7716 18.828 15.7576 18.784 15.7576 18.736C15.7576 18.708 15.7576 18.684 15.7576 18.664C15.7616 18.64 15.7656 18.616 15.7696 18.592C15.7776 18.556 15.7876 18.52 15.7996 18.484C15.8116 18.448 15.8176 18.43 15.8176 18.43L17.0656 15.358L17.1016 15.262C17.1096 15.238 17.1196 15.216 17.1316 15.196C17.1436 15.176 17.1536 15.152 17.1616 15.124C17.1816 15.072 17.2036 15.026 17.2276 14.986C17.2396 14.962 17.2536 14.94 17.2696 14.92C17.2856 14.9 17.3016 14.88 17.3176 14.86C17.3416 14.828 17.3756 14.802 17.4196 14.782C17.4756 14.762 17.5396 14.752 17.6116 14.752C17.6876 14.752 17.7536 14.762 17.8096 14.782C17.8536 14.802 17.8876 14.828 17.9116 14.86C17.9396 14.896 17.9696 14.938 18.0016 14.986C18.0256 15.026 18.0476 15.072 18.0676 15.124C18.0756 15.152 18.0856 15.176 18.0976 15.196C18.1096 15.216 18.1196 15.238 18.1276 15.262L18.1636 15.358L19.4116 18.43C19.4116 18.43 19.4176 18.448 19.4296 18.484C19.4416 18.52 19.4516 18.556 19.4596 18.592ZM18.0376 17.122C17.9856 17.006 17.9316 16.886 17.8756 16.762C17.8236 16.638 17.7676 16.512 17.7076 16.384C17.6916 16.348 17.6756 16.312 17.6596 16.276C17.6436 16.236 17.6276 16.198 17.6116 16.162C17.5996 16.198 17.5856 16.236 17.5696 16.276C17.5536 16.312 17.5376 16.348 17.5216 16.384C17.4616 16.512 17.4036 16.638 17.3476 16.762C17.2956 16.886 17.2436 17.006 17.1916 17.122L17.0836 17.386H18.1456L18.0376 17.122Z" fill="#FFB74D"/>
</g>
<defs>
<clipPath id="clip0_256_3">
<path d="M0 14C0 6.26801 6.26801 0 14 0V0C21.732 0 28 6.26801 28 14V14C28 21.732 21.732 28 14 28V28C6.26801 28 0 21.732 0 14V14Z" fill="white"/>
</clipPath>
</defs>
</svg>
